<svg width="84" height="84" viewBox="0 0 84 84" fill="none" xmlns="http://www.w3.org/2000/svg">
<path fill-rule="evenodd" clip-rule="evenodd" d="M36.816 10.1358C36.816 7.41078 39.02 5.20174 41.7388 5.20174C44.4576 5.20174 46.6617 7.41078 46.6617 10.1358V11.9855C53.4015 13.0847 57.3957 16.1633 59.8007 20.3601C62.2424 24.621 63.0029 29.9674 63.5051 35.3072C63.5991 36.3065 63.6841 37.3051 63.7686 38.2982C64.141 42.6726 64.5042 46.9402 65.5861 50.6833C66.8999 55.2288 69.2443 58.8841 73.8946 60.8848L74.3219 61.0686V69.1376H9.15649V61.0686L9.58376 60.8848C14.2341 58.8841 16.5785 55.2288 17.8923 50.6833C18.9742 46.9402 19.3374 42.6726 19.7097 38.2982C19.7943 37.3051 19.8793 36.3065 19.9733 35.3072C20.4755 29.9674 21.236 24.621 23.6777 20.3601C26.0826 16.1634 30.0766 13.085 36.816 11.9856V10.1358ZM45.9067 13.3004H45.2505V10.1358C45.2505 8.19191 43.6783 6.61611 41.7388 6.61611C39.7994 6.61611 38.2272 8.19191 38.2272 10.1358V13.2072L37.6207 13.2934C30.8986 14.249 27.1393 17.1591 24.9014 21.0645C22.6289 25.0301 21.8813 30.0909 21.3782 35.44C21.2874 36.4058 21.2045 37.3817 21.1214 38.3607C20.7495 42.7419 20.3723 47.1858 19.2477 51.0768C17.897 55.75 15.4408 59.7363 10.5677 61.9937V67.7232H72.9107V61.9937C68.0376 59.7363 65.5814 55.75 64.2307 51.0768C63.106 47.1858 62.7288 42.7419 62.357 38.3607C62.2739 37.3817 62.191 36.4058 62.1002 35.44C61.5971 30.0909 60.8495 25.0301 58.577 21.0645C56.3445 17.1686 52.598 14.2631 45.9067 13.3004Z" fill="white" stroke="white" stroke-miterlimit="10"/>
<path fill-rule="evenodd" clip-rule="evenodd" d="M31.2881 71.5967H52.1902V72.2748C52.1902 78.012 47.5114 82.6625 41.7391 82.6625C35.9669 82.6625 31.2881 78.012 31.2881 72.2748V71.5967ZM32.6779 72.9529C33.0267 77.6243 36.95 81.3062 41.7391 81.3062C46.5282 81.3062 50.4516 77.6243 50.8004 72.9529H32.6779Z" fill="white" stroke="white" stroke-miterlimit="10"/>
<path fill-rule="evenodd" clip-rule="evenodd" d="M21.4106 8.89056L25.1404 13.0525L24.6276 13.5269C19.4646 18.3029 16.5377 24.9969 16.5377 32.1624V32.8665H11.0007V32.1624C11.0007 27.3593 12.0577 22.7526 14.1416 18.477C15.8067 15.0601 18.1215 11.9468 20.8991 9.36584L21.4106 8.89056ZM21.3267 10.8872C18.8983 13.2541 16.8676 16.0535 15.3818 19.1026C13.4953 22.9732 12.4909 27.1252 12.3929 31.4582H15.1624C15.342 24.3984 18.2188 17.8116 23.1897 12.966L21.3267 10.8872Z" fill="white"/>
<path d="M14.1416 18.477C12.0577 22.7526 11.0007 27.3593 11.0007 32.1624V32.8665H16.5377V32.1624C16.5377 24.9969 19.4646 18.3029 24.6276 13.5269L25.1404 13.0525L21.4106 8.89056L20.8991 9.36584C18.1215 11.9468 15.8067 15.0601 14.1416 18.477ZM14.1416 18.477L14.7617 18.7898M15.3818 19.1026C16.8676 16.0535 18.8983 13.2541 21.3267 10.8872L23.1897 12.966C18.2188 17.8116 15.342 24.3984 15.1624 31.4582H12.3929C12.4909 27.1252 13.4953 22.9732 15.3818 19.1026Z" stroke="white" stroke-miterlimit="10"/>
<path fill-rule="evenodd" clip-rule="evenodd" d="M14.549 1.51318L18.3778 5.66761L17.8529 6.14102C10.4683 12.8003 6.23309 22.286 6.23309 32.1636V32.8663H0.549561V32.1636C0.549561 26.3216 1.77201 20.6773 4.18308 15.3906C6.51212 10.2849 9.82357 5.77461 14.024 1.98666L14.549 1.51318ZM14.4604 3.50319C10.6492 7.06166 7.63016 11.2512 5.47825 15.9686C3.24741 20.86 2.07053 26.0671 1.97656 31.4609H4.81907C5.01035 21.6757 9.18917 12.3169 16.3752 5.58087L14.4604 3.50319Z" fill="white"/>
<path d="M5.47825 15.9686C7.63016 11.2512 10.6492 7.06166 14.4604 3.50319L16.3752 5.58087C9.18917 12.3169 5.01035 21.6757 4.81907 31.4609H1.97656C2.07053 26.0671 3.24741 20.86 5.47825 15.9686ZM5.47825 15.9686L4.83068 15.6796M14.549 1.51318L14.024 1.98666C9.82357 5.77461 6.51212 10.2849 4.18308 15.3906C1.77201 20.6773 0.549561 26.3216 0.549561 32.1636V32.8663H6.23309V32.1636C6.23309 22.286 10.4683 12.8003 17.8529 6.14102L18.3778 5.66761L14.549 1.51318Z" stroke="white" stroke-miterlimit="10"/>
<path fill-rule="evenodd" clip-rule="evenodd" d="M62.0675 8.89056L62.579 9.36584C65.3566 11.9468 67.6714 15.0601 69.3365 18.477C71.4204 22.7527 72.4774 27.3593 72.4774 32.1624V32.8665H66.9404V32.1624C66.9404 24.9969 64.0135 18.3029 58.8505 13.5269L58.3377 13.0525L62.0675 8.89056ZM68.7164 18.7898L68.715 18.7905ZM62.1514 10.8872L60.2884 12.966C65.2593 17.8116 68.1361 24.3984 68.3157 31.4582H71.0852C70.9872 27.1252 69.9829 22.9732 68.0963 19.1026C66.6105 16.0535 64.5798 13.2541 62.1514 10.8872Z" fill="white"/>
<path d="M69.3365 18.477C67.6714 15.0601 65.3566 11.9468 62.579 9.36584L62.0675 8.89056L58.3377 13.0525L58.8505 13.5269C64.0135 18.3029 66.9404 24.9969 66.9404 32.1624V32.8665H72.4774V32.1624C72.4774 27.3593 71.4204 22.7527 69.3365 18.477ZM69.3365 18.477L68.7164 18.7898L68.715 18.7905M60.2884 12.966L62.1514 10.8872C64.5798 13.2541 66.6105 16.0535 68.0963 19.1026C69.9829 22.9732 70.9872 27.1252 71.0852 31.4582H68.3157C68.1361 24.3984 65.2593 17.8116 60.2884 12.966Z" stroke="white" stroke-miterlimit="10"/>
<path fill-rule="evenodd" clip-rule="evenodd" d="M68.9292 1.51318L69.4543 1.98666C73.6547 5.77461 76.9661 10.2848 79.2951 15.3906C81.7062 20.6772 82.9287 26.3216 82.9287 32.1636V32.8663H77.2451V32.1636C77.2451 22.286 73.0099 12.8003 65.6254 6.14102L65.1004 5.66761L68.9292 1.51318ZM69.0179 3.50319L67.103 5.58087C74.2891 12.3169 78.4679 21.6757 78.6592 31.4609H81.5017C81.4077 26.0671 80.2308 20.86 78 15.9686C75.8481 11.2512 72.829 7.06166 69.0179 3.50319Z" fill="white" stroke="white" stroke-miterlimit="10"/>
</svg>
