<svg width="76" height="77" viewBox="0 0 76 77" fill="none" xmlns="http://www.w3.org/2000/svg">
<path d="M22.4353 1.85707C23.0419 1.85707 23.5922 2.10496 23.9903 2.50282C24.3884 2.90069 24.6365 3.45062 24.6365 4.05679V17.0551C24.6365 17.6613 24.3884 18.2112 23.9903 18.6091C23.5922 19.007 23.0419 19.2548 22.4353 19.2548H16.4321C15.8256 19.2548 15.2753 19.007 14.8771 18.6091C14.479 18.2112 14.231 17.6613 14.231 17.0551V4.05679C14.231 3.45062 14.479 2.90069 14.8771 2.50282C15.2753 2.10496 15.8256 1.85707 16.4321 1.85707H22.4353ZM22.4353 0.398926H16.4321C15.4566 0.398926 14.5374 0.780127 13.8453 1.4717C13.1533 2.16328 12.7719 3.08191 12.7719 4.05679V17.0551C12.7719 18.03 13.1533 18.9486 13.8453 19.6402C14.5374 20.3318 15.4566 20.713 16.4321 20.713H22.4353C23.4108 20.713 24.3301 20.3318 25.0221 19.6402C25.7141 18.9486 26.0956 18.03 26.0956 17.0551V4.05679C26.0956 3.08191 25.7141 2.16328 25.0221 1.4717C24.3301 0.780127 23.4108 0.398926 22.4353 0.398926Z" fill="white"/>
<path d="M59.58 1.85707C60.1865 1.85707 60.7368 2.10496 61.135 2.50282C61.5331 2.90069 61.7811 3.45062 61.7811 4.05679V17.0551C61.7811 17.6613 61.5331 18.2112 61.135 18.6091C60.7368 19.007 60.1865 19.2548 59.58 19.2548H53.5768C52.9702 19.2548 52.4199 19.007 52.0218 18.6091C51.6237 18.2112 51.3756 17.6613 51.3756 17.0551V4.05679C51.3756 3.45062 51.6237 2.90069 52.0218 2.50282C52.4199 2.10496 52.9702 1.85707 53.5768 1.85707H59.58ZM59.58 0.398926H53.5768C52.5992 0.398926 51.682 0.780127 50.99 1.4717C50.298 2.16328 49.9165 3.08191 49.9165 4.05679V17.0551C49.9165 18.03 50.298 18.9486 50.99 19.6402C51.682 20.3318 52.6013 20.713 53.5768 20.713H59.58C60.5555 20.713 61.4747 20.3318 62.1667 19.6402C62.8588 18.9486 63.2402 18.03 63.2402 17.0551V4.05679C63.2402 3.07983 62.8588 2.16328 62.1667 1.4717C61.4747 0.780127 60.5555 0.398926 59.58 0.398926Z" fill="white"/>
<path d="M74.4754 25.7041V69.0985C74.4754 70.667 73.8334 72.0918 72.8016 73.125C71.7678 74.1582 70.342 74.7977 68.7724 74.7977H7.23977C5.67019 74.7977 4.24443 74.1562 3.21055 73.125C2.17667 72.0939 1.53674 70.667 1.53674 69.0985V25.7041H74.4754ZM60.2929 38.7336H67.3654C68.0283 38.7336 68.5661 38.1962 68.5661 37.5338V30.9096C68.5661 30.2472 68.0283 29.7098 67.3654 29.7098H60.2929C59.6301 29.7098 59.0923 30.2472 59.0923 30.9096V37.5338C59.0923 38.1962 59.6301 38.7336 60.2929 38.7336ZM43.0775 38.7336H50.15C50.8129 38.7336 51.3507 38.1962 51.3507 37.5338V30.9096C51.3507 30.2472 50.8129 29.7098 50.15 29.7098H43.0775C42.4147 29.7098 41.8769 30.2472 41.8769 30.9096V37.5338C41.8769 38.1962 42.4147 38.7336 43.0775 38.7336ZM25.8621 38.7336H32.9347C33.5975 38.7336 34.1353 38.1962 34.1353 37.5338V30.9096C34.1353 30.2472 33.5975 29.7098 32.9347 29.7098H25.8621C25.1993 29.7098 24.6615 30.2472 24.6615 30.9096V37.5338C24.6615 38.1962 25.1993 38.7336 25.8621 38.7336ZM60.2929 53.7317H67.3654C68.0283 53.7317 68.5661 53.1943 68.5661 52.5319V45.9077C68.5661 45.2453 68.0283 44.7079 67.3654 44.7079H60.2929C59.6301 44.7079 59.0923 45.2453 59.0923 45.9077V52.5319C59.0923 53.1943 59.6301 53.7317 60.2929 53.7317ZM43.0775 53.7317H50.15C50.8129 53.7317 51.3507 53.1943 51.3507 52.5319V45.9077C51.3507 45.2453 50.8129 44.7079 50.15 44.7079H43.0775C42.4147 44.7079 41.8769 45.2453 41.8769 45.9077V52.5319C41.8769 53.1943 42.4147 53.7317 43.0775 53.7317ZM25.8621 53.7317H32.9347C33.5975 53.7317 34.1353 53.1943 34.1353 52.5319V45.9077C34.1353 45.2453 33.5975 44.7079 32.9347 44.7079H25.8621C25.1993 44.7079 24.6615 45.2453 24.6615 45.9077V52.5319C24.6615 53.1943 25.1993 53.7317 25.8621 53.7317ZM8.64677 53.7317H15.7193C16.3821 53.7317 16.9199 53.1943 16.9199 52.5319V45.9077C16.9199 45.2453 16.3821 44.7079 15.7193 44.7079H8.64677C7.98391 44.7079 7.44613 45.2453 7.44613 45.9077V52.5319C7.44613 53.1943 7.98391 53.7317 8.64677 53.7317ZM43.0775 68.7298H50.15C50.8129 68.7298 51.3507 68.1923 51.3507 67.5299V60.9058C51.3507 60.2434 50.8129 59.7059 50.15 59.7059H43.0775C42.4147 59.7059 41.8769 60.2434 41.8769 60.9058V67.5299C41.8769 68.1923 42.4147 68.7298 43.0775 68.7298ZM25.8621 68.7298H32.9347C33.5975 68.7298 34.1353 68.1923 34.1353 67.5299V60.9058C34.1353 60.2434 33.5975 59.7059 32.9347 59.7059H25.8621C25.1993 59.7059 24.6615 60.2434 24.6615 60.9058V67.5299C24.6615 68.1923 25.1993 68.7298 25.8621 68.7298ZM8.64677 68.7298H15.7193C16.3821 68.7298 16.9199 68.1923 16.9199 67.5299V60.9058C16.9199 60.2434 16.3821 59.7059 15.7193 59.7059H8.64677C7.98391 59.7059 7.44613 60.2434 7.44613 60.9058V67.5299C7.44613 68.1923 7.98391 68.7298 8.64677 68.7298ZM75.9345 24.2459H0.0776367V69.0985C0.0776367 71.0045 0.823866 72.8022 2.17875 74.1562C3.53364 75.5101 5.33042 76.2559 7.23977 76.2559H68.7724C70.6797 76.2559 72.4785 75.5101 73.8334 74.1562C75.1883 72.8022 75.9345 71.0066 75.9345 69.0985V24.2459ZM60.5514 31.1679H67.1069V37.2755H60.5514V31.1679ZM43.336 31.1679H49.8916V37.2755H43.336V31.1679ZM26.1206 31.1679H32.6762V37.2755H26.1206V31.1679ZM60.5514 46.166H67.1069V52.2736H60.5514V46.166ZM43.336 46.166H49.8916V52.2736H43.336V46.166ZM26.1206 46.166H32.6762V52.2736H26.1206V46.166ZM8.90524 46.166H15.4608V52.2736H8.90524V46.166ZM43.336 61.1641H49.8916V67.2716H43.336V61.1641ZM26.1206 61.1641H32.6762V67.2716H26.1206V61.1641ZM8.90524 61.1641H15.4608V67.2716H8.90524V61.1641Z" fill="white"/>
<path d="M68.7724 9.65614C70.342 9.65614 71.7678 10.2977 72.8016 11.3288C73.8355 12.362 74.4754 13.7869 74.4754 15.3554V24.5042H1.53674V15.3554C1.53674 13.7869 2.17875 12.362 3.21055 11.3288C4.24443 10.2956 5.67019 9.65614 7.23977 9.65614H13.0303V17.0552C13.0303 17.9592 13.3889 18.8195 14.0267 19.459C14.6645 20.0965 15.5275 20.4548 16.4321 20.4548H22.4353C23.34 20.4548 24.2009 20.0965 24.8408 19.459C25.4786 18.8216 25.8371 17.9592 25.8371 17.0552V9.65614H50.175V17.0552C50.175 17.9592 50.5336 18.8195 51.1714 19.459C51.8092 20.0965 52.6722 20.4548 53.5769 20.4548H59.58C60.4826 20.4548 61.3456 20.0965 61.9855 19.459C62.6233 18.8216 62.9818 17.9592 62.9818 17.0552V9.65614H68.7724ZM68.7724 8.198H61.5227V17.0552C61.5227 17.5718 61.3205 18.0592 60.9537 18.4279C60.5868 18.7946 60.0991 18.9966 59.58 18.9966H53.5769C53.0599 18.9966 52.5722 18.7946 52.2032 18.4279C51.8363 18.0613 51.6342 17.5739 51.6342 17.0552V8.198H24.378V17.0552C24.378 17.5718 24.1758 18.0592 23.809 18.4279C23.4421 18.7946 22.9544 18.9966 22.4353 18.9966H16.4321C15.9152 18.9966 15.4274 18.7946 15.0585 18.4279C14.6916 18.0613 14.4894 17.5739 14.4894 17.0552V8.198H7.23977C5.33251 8.198 3.53364 8.94374 2.17875 10.2977C0.823866 11.6517 0.0776367 13.4494 0.0776367 15.3554V25.9624H75.9345V15.3554C75.9345 13.4494 75.1883 11.6517 73.8334 10.2977C72.4785 8.94374 70.6818 8.198 68.7724 8.198Z" fill="white"/>
<path d="M59.58 1.85707C60.1865 1.85707 60.7368 2.10496 61.135 2.50282C61.5331 2.90069 61.7811 3.45062 61.7811 4.05679V17.0551C61.7811 17.6613 61.5331 18.2112 61.135 18.6091C60.7368 19.007 60.1865 19.2548 59.58 19.2548H53.5768C52.9702 19.2548 52.4199 19.007 52.0218 18.6091C51.6237 18.2112 51.3756 17.6613 51.3756 17.0551V4.05679C51.3756 3.45062 51.6237 2.90069 52.0218 2.50282C52.4199 2.10496 52.9702 1.85707 53.5768 1.85707H59.58ZM59.58 0.398926H53.5768C52.5992 0.398926 51.682 0.780127 50.99 1.4717C50.298 2.16328 49.9165 3.08191 49.9165 4.05679V17.0551C49.9165 18.03 50.298 18.9486 50.99 19.6402C51.682 20.3318 52.6013 20.713 53.5768 20.713H59.58C60.5555 20.713 61.4747 20.3318 62.1667 19.6402C62.8588 18.9486 63.2402 18.03 63.2402 17.0551V4.05679C63.2402 3.07983 62.8588 2.16328 62.1667 1.4717C61.4747 0.780127 60.5555 0.398926 59.58 0.398926Z" fill="white"/>
<path d="M22.4353 1.85707C23.0419 1.85707 23.5922 2.10496 23.9903 2.50282C24.3884 2.90069 24.6365 3.45062 24.6365 4.05679V17.0551C24.6365 17.6613 24.3884 18.2112 23.9903 18.6091C23.5922 19.007 23.0419 19.2548 22.4353 19.2548H16.4321C15.8256 19.2548 15.2753 19.007 14.8771 18.6091C14.479 18.2112 14.231 17.6613 14.231 17.0551V4.05679C14.231 3.45062 14.479 2.90069 14.8771 2.50282C15.2753 2.10496 15.8256 1.85707 16.4321 1.85707H22.4353ZM22.4353 0.398926H16.4321C15.4566 0.398926 14.5374 0.780127 13.8453 1.4717C13.1533 2.16328 12.7719 3.08191 12.7719 4.05679V17.0551C12.7719 18.03 13.1533 18.9486 13.8453 19.6402C14.5374 20.3318 15.4566 20.713 16.4321 20.713H22.4353C23.4108 20.713 24.3301 20.3318 25.0221 19.6402C25.7141 18.9486 26.0956 18.03 26.0956 17.0551V4.05679C26.0956 3.08191 25.7141 2.16328 25.0221 1.4717C24.3301 0.780127 23.4108 0.398926 22.4353 0.398926Z" fill="white"/>
</svg>
