<svg width="81" height="74" viewBox="0 0 81 74" fill="none" xmlns="http://www.w3.org/2000/svg">
<path d="M80.6781 66.5483V1.80089C80.6781 1.23508 80.2151 0.776611 79.6437 0.776611H13.3384C12.767 0.776611 12.3041 1.23508 12.3041 1.80089V44.3698H1.29896C0.727608 44.3698 0.264648 44.8283 0.264648 45.3941V66.6941C0.264648 66.7232 0.26589 66.7515 0.268372 66.7798C0.26589 66.8552 0.264648 66.9285 0.264648 67.0014C0.264648 68.6005 0.82442 70.1636 1.84053 71.4021C2.14793 71.7774 2.49587 72.122 2.87402 72.426C4.1185 73.4273 5.68818 73.9817 7.29757 73.9874H73.6389C77.5284 73.9874 80.693 70.8535 80.693 67.0018C80.693 66.8502 80.688 66.6982 80.6781 66.5487V66.5483ZM3.44661 70.1107C2.71804 69.2229 2.33328 68.1478 2.33328 67.0014C2.33328 66.9195 2.33535 66.8351 2.3399 66.7437C2.34279 66.6847 2.34031 66.6257 2.33328 66.568V46.4184H12.3041V66.568C12.2966 66.627 12.2946 66.6868 12.2975 66.747C12.3012 66.822 12.3037 66.901 12.3041 66.9826V67.0014C12.3041 69.7215 10.0712 71.9348 7.32529 71.9384C7.31495 71.9384 7.30585 71.9384 7.29799 71.9384C7.29592 71.9384 7.29385 71.9384 7.29178 71.9384C6.14411 71.9323 5.06801 71.5513 4.17808 70.8355C3.9104 70.6204 3.66465 70.377 3.44703 70.1111L3.44661 70.1107ZM73.6493 71.9384C73.6294 71.938 73.6091 71.938 73.5889 71.9384H12.3045C13.5403 70.7146 14.3206 69.0401 14.3702 67.1887C14.3719 67.1264 14.3727 67.0641 14.3727 67.0014V2.82516H78.6094V66.5831C78.6094 66.6073 78.6103 66.6315 78.6119 66.6556C78.6202 66.7691 78.6243 66.8855 78.6243 67.0014C78.6243 69.7203 76.3935 71.9327 73.6493 71.9384Z" fill="white"/>
<path d="M73.3639 6.79936H19.6209C19.0496 6.79936 18.5866 7.25783 18.5866 7.82364V13.6415C18.5866 14.2073 19.0496 14.6658 19.6209 14.6658H73.3639C73.9353 14.6658 74.3982 14.2073 74.3982 13.6415V7.82364C74.3982 7.25783 73.9353 6.79936 73.3639 6.79936ZM72.3296 12.6173H20.6552V8.84792H72.3296V12.6173Z" fill="white"/>
<path d="M19.6211 48.0425H46.5133C47.076 48.0425 47.5323 47.5906 47.5323 47.0334V21.9727C47.5323 21.4154 47.076 20.9635 46.5133 20.9635H19.6211C19.0585 20.9635 18.6021 21.4154 18.6021 21.9727V47.0334C18.6021 47.5906 19.0585 48.0425 19.6211 48.0425ZM20.6401 22.9818H45.4939V46.0239H20.6405V22.9818H20.6401Z" fill="white"/>
<path d="M73.3639 61.045H19.6209C19.0496 61.045 18.5866 61.5035 18.5866 62.0693C18.5866 62.6351 19.0496 63.0936 19.6209 63.0936H73.3639C73.9353 63.0936 74.3982 62.6351 74.3982 62.0693C74.3982 61.5035 73.9353 61.045 73.3639 61.045Z" fill="white"/>
<path d="M73.3639 56.0332H19.6209C19.0496 56.0332 18.5866 56.4917 18.5866 57.0575C18.5866 57.6233 19.0496 58.0817 19.6209 58.0817H73.3639C73.9353 58.0817 74.3982 57.6233 74.3982 57.0575C74.3982 56.4917 73.9353 56.0332 73.3639 56.0332Z" fill="white"/>
<path d="M73.3639 51.0211H19.6209C19.0496 51.0211 18.5866 51.4796 18.5866 52.0454C18.5866 52.6112 19.0496 53.0697 19.6209 53.0697H73.3639C73.9353 53.0697 74.3982 52.6112 74.3982 52.0454C74.3982 51.4796 73.9353 51.0211 73.3639 51.0211Z" fill="white"/>
<path d="M73.3638 46.0087H51.7876C51.2163 46.0087 50.7533 46.4672 50.7533 47.033C50.7533 47.5988 51.2163 48.0573 51.7876 48.0573H73.3638C73.9352 48.0573 74.3981 47.5988 74.3981 47.033C74.3981 46.4672 73.9352 46.0087 73.3638 46.0087Z" fill="white"/>
<path d="M73.3638 40.9967H51.7876C51.2163 40.9967 50.7533 41.4552 50.7533 42.021C50.7533 42.5868 51.2163 43.0453 51.7876 43.0453H73.3638C73.9352 43.0453 74.3981 42.5868 74.3981 42.021C74.3981 41.4552 73.9352 40.9967 73.3638 40.9967Z" fill="white"/>
<path d="M73.3638 35.9848H51.7876C51.2163 35.9848 50.7533 36.4433 50.7533 37.0091C50.7533 37.5749 51.2163 38.0333 51.7876 38.0333H73.3638C73.9352 38.0333 74.3981 37.5749 74.3981 37.0091C74.3981 36.4433 73.9352 35.9848 73.3638 35.9848Z" fill="white"/>
<path d="M73.3638 30.9724H51.7876C51.2163 30.9724 50.7533 31.4308 50.7533 31.9967C50.7533 32.5625 51.2163 33.0209 51.7876 33.0209H73.3638C73.9352 33.0209 74.3981 32.5625 74.3981 31.9967C74.3981 31.4308 73.9352 30.9724 73.3638 30.9724Z" fill="white"/>
<path d="M73.3638 25.9603H51.7876C51.2163 25.9603 50.7533 26.4188 50.7533 26.9846C50.7533 27.5504 51.2163 28.0089 51.7876 28.0089H73.3638C73.9352 28.0089 74.3981 27.5504 74.3981 26.9846C74.3981 26.4188 73.9352 25.9603 73.3638 25.9603Z" fill="white"/>
<path d="M73.3638 20.9483H51.7876C51.2163 20.9483 50.7533 21.4068 50.7533 21.9726C50.7533 22.5384 51.2163 22.9969 51.7876 22.9969H73.3638C73.9352 22.9969 74.3981 22.5384 74.3981 21.9726C74.3981 21.4068 73.9352 20.9483 73.3638 20.9483Z" fill="white"/>
</svg>
