<svg width="67" height="73" viewBox="0 0 67 73" fill="none" xmlns="http://www.w3.org/2000/svg">
<path d="M66.6973 22.9404C66.8235 17.8321 60.1787 15.0894 56.642 18.7909L55.2431 20.1846V12.9727C55.2431 10.8351 53.4971 9.09571 51.3514 9.09571H43.5654V7.80423C43.5654 6.37916 42.4006 5.21867 40.9701 5.21867H34.3516C32.929 -1.60545 23.0578 -1.60283 21.6405 5.21867H15.022C13.5916 5.21867 12.4267 6.37916 12.4267 7.80423V9.09571H4.64071C2.49502 9.09571 0.749023 10.8351 0.749023 12.9727V68.5533C0.749023 70.6909 2.49502 72.4303 4.64071 72.4303H51.3488C53.4945 72.4303 55.2405 70.6909 55.2405 68.5533V36.7825L64.9697 27.0899C66.082 25.9818 66.6947 24.5096 66.6947 22.9404H66.6973ZM27.9961 2.6331C29.6869 2.6331 31.1305 3.71238 31.6669 5.21867H24.3253C24.8617 3.715 26.3053 2.6331 27.9961 2.6331ZM15.022 7.80161H40.9701C40.9701 9.31837 40.9701 12.7186 40.9701 14.2642H15.022V7.80161ZM52.6478 68.5533C52.6478 69.2658 52.0667 69.8447 51.3514 69.8447H4.64071C3.92548 69.8447 3.34436 69.2658 3.34436 68.5533V12.9727C3.34436 12.2602 3.92548 11.6813 4.64071 11.6813H12.4267V14.2668C12.4267 15.6919 13.5916 16.8524 15.022 16.8524H40.9701C42.4006 16.8524 43.5654 15.6919 43.5654 14.2668V11.6813H51.3514C52.0667 11.6813 52.6478 12.2602 52.6478 12.9727V22.7701L22.1822 53.1211C21.6773 53.624 21.3644 54.2842 21.2803 55.0334L20.5966 61.1712C19.8446 61.9911 18.1354 63.0704 19.295 64.2964C20.523 65.4516 21.6116 63.7463 22.432 62.9997L28.5903 62.3186C29.3424 62.2347 30.005 61.9256 30.5099 61.4226L52.6478 39.3681V68.5533ZM41.2199 42.4566C42.0508 43.2844 43.0658 43.8476 44.1545 44.1777L28.6771 59.5968C28.5719 59.7016 28.4194 59.7382 28.3064 59.7513L23.305 60.3041C23.3655 60.1888 23.7994 54.816 24.015 54.9522L39.4713 39.5514C39.8026 40.6307 40.389 41.6288 41.2173 42.454L41.2199 42.4566ZM63.1369 25.264C59.1296 29.2563 50.3706 37.9823 46.4395 41.8986C43.8836 42.1213 41.5539 39.8055 41.7774 37.2566C44.4937 34.5479 56.0109 23.0792 58.4748 20.622C61.6223 17.6357 66.1346 22.1283 63.1343 25.264H63.1369Z" fill="white"/>
<path d="M11.1276 27.192H33.1866C34.8774 27.1868 34.8879 24.6143 33.1866 24.6064H11.1302C9.43942 24.6117 9.4289 27.1842 11.1302 27.192H11.1276Z" fill="white"/>
<path d="M27.9959 34.9461C27.9959 34.2336 27.4148 33.6546 26.6996 33.6546H11.1276C10.4097 33.6546 9.83125 34.2336 9.83125 34.9461C9.83125 35.6586 10.4124 36.2376 11.1276 36.2376H26.697C27.4148 36.2376 27.9933 35.6586 27.9933 34.9461H27.9959Z" fill="white"/>
</svg>
