<svg width="61" height="61" viewBox="0 0 61 61" fill="none" xmlns="http://www.w3.org/2000/svg">
<path d="M30.5 0C47.3621 0 61 13.6379 61 30.5C61 47.3621 47.3621 61 30.5 61C13.6379 61 0 47.3621 0 30.5C0 13.6379 13.6379 0 30.5 0ZM24.9229 46.5779C38.43 46.5779 45.8371 35.38 45.8371 25.6636V24.705C47.275 23.6593 48.5386 22.3521 49.4971 20.8707C48.19 21.4371 46.7521 21.8293 45.2707 22.0471C46.7957 21.1321 47.9721 19.6943 48.495 17.995C47.0571 18.8229 45.4886 19.4329 43.8329 19.7814C42.4821 18.3436 40.565 17.4721 38.4736 17.4721C34.4214 17.4721 31.11 20.7836 31.11 24.8357C31.11 25.4021 31.1536 25.9686 31.3279 26.4914C25.2279 26.1864 19.7814 23.2671 16.165 18.8229C15.555 19.9121 15.1629 21.1757 15.1629 22.5264C15.1629 25.0536 16.47 27.3193 18.4307 28.6264C17.2107 28.6264 16.0779 28.2779 15.1193 27.7114V27.7986C15.1193 31.3714 17.6464 34.3343 21.0014 35.0314C20.3914 35.2057 19.7379 35.2929 19.0843 35.2929C18.605 35.2929 18.1693 35.2493 17.69 35.1621C18.605 38.0814 21.35 40.2164 24.5307 40.26C22.0036 42.2207 18.8229 43.3971 15.3807 43.3971C14.7707 43.3971 14.2043 43.3971 13.6379 43.31C16.8621 45.4014 20.74 46.6214 24.8793 46.6214" fill="#FF9503"/>
</svg>
