<svg width="95" height="74" viewBox="0 0 95 74" fill="none" xmlns="http://www.w3.org/2000/svg">
<path fill-rule="evenodd" clip-rule="evenodd" d="M66.6608 1.21592C72.4256 0.611938 78.9487 1.27747 86.045 3.18248L86.0451 3.18251C86.9498 3.42571 87.5777 4.2385 87.5777 5.16718V12.6992H92.2631V12.727C93.2482 12.8871 94 13.7345 94 14.7559V70.9439C94 72.0794 93.0708 73 91.9247 73H3.07534C1.92922 73 1 72.0794 1 70.9439V14.7553C1 13.6198 1.92922 12.6992 3.07534 12.6992H7.42289V5.16718C7.42289 4.23856 8.05139 3.42502 8.95572 3.18246C16.0526 1.27807 22.5756 0.61255 28.3398 1.21592C33.0344 1.70742 37.2421 3.03612 40.8415 5.1709C44.0236 7.05856 46.1583 9.23988 47.5003 10.953C48.8423 9.23988 50.977 7.05857 54.1591 5.17091C57.7585 3.03613 61.9662 1.70742 66.6608 1.21592ZM66.732 1.88274C62.1224 2.36534 58.0115 3.66759 54.5068 5.74623C51.1904 7.71356 49.0476 10.0052 47.772 11.7073L47.5003 12.0698L47.2286 11.7073C45.953 10.0052 43.8102 7.71356 40.4938 5.74623C36.9891 3.66759 32.8782 2.36534 28.2687 1.88274C22.6071 1.29011 16.1699 1.94127 9.13262 3.82969C8.52337 3.9931 8.0997 4.54138 8.0997 5.16718V13.3697H3.07534C2.30301 13.3697 1.67681 13.9901 1.67681 14.7553V70.9439C1.67681 71.7091 2.30301 72.3295 3.07534 72.3295H91.9247C92.697 72.3295 93.3232 71.7091 93.3232 70.9439V14.7559C93.3232 13.9907 92.697 13.3703 91.9247 13.3703H91.5863V13.3697H86.9009V5.16718C86.9009 4.54148 86.478 3.99371 85.868 3.82968C78.8313 1.94067 72.3941 1.28951 66.732 1.88274ZM56.4217 8.62219L56.2911 8.69963C52.0821 11.1962 50.1387 14.2342 49.5756 15.2478V64.8445C50.7753 63.6845 52.2851 62.4709 54.1592 61.3595C57.7585 59.2247 61.9662 57.896 66.6608 57.4045C71.7098 56.8753 77.3398 57.3209 83.4271 58.7186V6.75881C72.3893 4.06301 63.095 4.72632 56.4217 8.62219ZM55.9434 8.12372C62.8898 4.0033 72.5313 3.36121 83.8477 6.17147L84.1039 6.23507V59.5663L83.6871 59.468C77.497 58.0074 71.8037 57.5398 66.732 58.0714C62.1224 58.554 58.0115 59.8562 54.5068 61.9348C52.3729 63.2003 50.7265 64.6004 49.482 65.8916L48.8988 66.4966V15.078L48.9392 15.0037C49.4775 14.012 51.4436 10.8439 55.7789 8.22287V8.22133L55.9434 8.12372ZM11.5736 6.7588V58.7186C17.6609 57.3203 23.2914 56.8759 28.3398 57.4045C33.0345 57.896 37.2421 59.2247 40.8415 61.3595C42.715 62.4709 44.2252 63.6845 45.425 64.8445V15.255C44.8386 14.2151 42.8081 11.0738 38.5174 8.58676C31.851 4.72281 22.5734 4.07223 11.5736 6.7588ZM38.8592 8.00799C43.3958 10.6375 45.4949 13.9827 46.0603 15.0078L46.1018 15.0829V66.4966L45.5186 65.8916C44.2742 64.6004 42.6271 63.2003 40.4938 61.9348C36.9891 59.8562 32.8782 58.554 28.2687 58.0714C23.1975 57.5404 17.5036 58.0068 11.3136 59.468L10.8968 59.5663V6.23508L11.1529 6.17147C22.3583 3.38872 31.9304 3.99199 38.8592 8.00799ZM4.47386 16.1414H8.09909V61.3558C8.09909 61.7873 8.30173 62.1941 8.64785 62.4561L8.64803 62.4562C8.99367 62.7182 9.44311 62.8057 9.86418 62.6932C21.6253 59.5362 31.6664 60.0279 38.8592 64.1966C41.5609 65.7628 43.3976 67.5822 44.5602 69.0135L45.0033 69.5589H4.47386V16.1414ZM5.15067 16.812V68.8884H43.5715C42.4456 67.6092 40.8022 66.0999 38.5174 64.7754C31.5428 60.7331 21.7105 60.208 10.0408 63.3405L10.0404 63.3406C9.41676 63.5073 8.75008 63.3778 8.23679 62.9888C7.72286 62.5997 7.42228 61.9958 7.42228 61.3558V16.812H5.15067ZM86.9015 16.1414H90.5268V69.5589H49.9844L50.4268 69.0136C51.5542 67.6238 53.3261 65.8657 55.9441 64.3129C63.1526 60.0373 73.2626 59.5069 85.1368 62.6939C85.5574 62.8068 86.0067 62.719 86.3526 62.4568C86.6984 62.1947 86.9015 61.7877 86.9015 61.3564V16.1414ZM87.5783 16.812V61.3564C87.5783 61.9967 87.2769 62.6005 86.7638 62.9894C86.2508 63.3783 85.584 63.5087 84.9598 63.3411C73.1778 60.1788 63.2801 60.7432 56.2917 64.8883C54.0864 66.1963 52.5042 67.652 51.4154 68.8884H89.8499V16.812H87.5783Z" fill="white"/>
<path d="M28.3398 1.21592C22.5756 0.61255 16.0526 1.27807 8.95572 3.18246C8.05139 3.42502 7.42289 4.23856 7.42289 5.16718V12.6992H3.07534C1.92922 12.6992 1 13.6198 1 14.7553V70.9439C1 72.0794 1.92922 73 3.07534 73H91.9247C93.0708 73 94 72.0794 94 70.9439V14.7559C94 13.7345 93.2482 12.8871 92.2631 12.727V12.6992H87.5777V5.16718C87.5777 4.2385 86.9498 3.42571 86.0451 3.18251L86.045 3.18248C78.9487 1.27747 72.4256 0.611938 66.6608 1.21592C61.9662 1.70742 57.7585 3.03613 54.1591 5.17091M28.3398 1.21592L28.3042 1.54928L28.2687 1.88274M28.3398 1.21592C33.0344 1.70742 37.2421 3.03612 40.8415 5.1709M40.8415 5.1709L40.668 5.45791M40.8415 5.1709C44.0236 7.05856 46.1583 9.23988 47.5003 10.953C48.8423 9.23988 50.977 7.05857 54.1591 5.17091M54.1591 5.17091L54.333 5.45856M66.732 1.88274L66.6964 1.54933M66.732 1.88274C62.1224 2.36534 58.0115 3.66759 54.5068 5.74623C51.1904 7.71356 49.0476 10.0052 47.772 11.7073L47.5003 12.0698L47.2286 11.7073C45.953 10.0052 43.8102 7.71356 40.4938 5.74623C36.9891 3.66759 32.8782 2.36534 28.2687 1.88274M66.732 1.88274C72.3941 1.28951 78.8313 1.94067 85.868 3.82968C86.478 3.99371 86.9009 4.54148 86.9009 5.16718V13.3697H91.5863V13.3703H91.9247C92.697 13.3703 93.3232 13.9907 93.3232 14.7559V70.9439C93.3232 71.7091 92.697 72.3295 91.9247 72.3295H3.07534C2.30301 72.3295 1.67681 71.7091 1.67681 70.9439V14.7553C1.67681 13.9901 2.30301 13.3697 3.07534 13.3697H8.0997V5.16718C8.0997 4.54138 8.52337 3.9931 9.13262 3.82969C16.1699 1.94127 22.6071 1.29011 28.2687 1.88274M54.5068 61.9348C58.0115 59.8562 62.1224 58.554 66.732 58.0714C71.8037 57.5398 77.497 58.0074 83.6871 59.468L84.1039 59.5663V6.23507L83.8477 6.17147C72.5313 3.36121 62.8898 4.0033 55.9434 8.12372L55.7789 8.22133V8.22287C51.4436 10.8439 49.4775 14.012 48.9392 15.0037L48.8988 15.078V66.4966L49.482 65.8916C50.7265 64.6004 52.3729 63.2003 54.5068 61.9348ZM54.5068 61.9348L54.333 61.6472M40.8415 61.3595C37.2421 59.2247 33.0345 57.896 28.3398 57.4045C23.2914 56.8759 17.6609 57.3203 11.5736 58.7186V6.7588C22.5734 4.07223 31.851 4.72281 38.5174 8.58676C42.8081 11.0738 44.8386 14.2151 45.425 15.255V64.8445C44.2252 63.6845 42.715 62.4709 40.8415 61.3595ZM40.8415 61.3595L40.6676 61.6472M38.6883 8.29738L38.8592 8.00799M38.8592 8.00799C43.3958 10.6375 45.4949 13.9827 46.0603 15.0078L46.1018 15.0829V66.4966L45.5186 65.8916C44.2742 64.6004 42.6271 63.2003 40.4938 61.9348C36.9891 59.8562 32.8782 58.554 28.2687 58.0714C23.1975 57.5404 17.5036 58.0068 11.3136 59.468L10.8968 59.5663V6.23508L11.1529 6.17147C22.3583 3.38872 31.9304 3.99199 38.8592 8.00799ZM38.8592 64.1966C31.6664 60.0279 21.6253 59.5362 9.86418 62.6932C9.44311 62.8057 8.99367 62.7182 8.64803 62.4562L8.64785 62.4561C8.30173 62.1941 8.09909 61.7873 8.09909 61.3558V16.1414H4.47386V69.5589H45.0033L44.5602 69.0135C43.3976 67.5822 41.5609 65.7628 38.8592 64.1966ZM38.8592 64.1966L38.6883 64.486M56.2911 8.69963L56.4217 8.62219C63.095 4.72632 72.3893 4.06301 83.4271 6.75881V58.7186C77.3398 57.3209 71.7098 56.8753 66.6608 57.4045C61.9662 57.896 57.7585 59.2247 54.1592 61.3595C52.2851 62.4709 50.7753 63.6845 49.5756 64.8445V15.2478C50.1387 14.2342 52.0821 11.1962 56.2911 8.69963ZM5.15067 68.8884V16.812H7.42228V61.3558C7.42228 61.9958 7.72286 62.5997 8.23679 62.9888C8.75008 63.3778 9.41676 63.5073 10.0404 63.3406L10.0408 63.3405C21.7105 60.208 31.5428 60.7331 38.5174 64.7754C40.8022 66.0999 42.4456 67.6092 43.5715 68.8884H5.15067ZM86.9015 16.1414H90.5268V69.5589H49.9844L50.4268 69.0136C51.5542 67.6238 53.3261 65.8657 55.9441 64.3129C63.1526 60.0373 73.2626 59.5069 85.1368 62.6939C85.5574 62.8068 86.0067 62.719 86.3526 62.4568C86.6984 62.1947 86.9015 61.7877 86.9015 61.3564V16.1414ZM87.5783 61.3564V16.812H89.8499V68.8884H51.4154C52.5042 67.652 54.0864 66.1963 56.2917 64.8883C63.2801 60.7432 73.1778 60.1788 84.9598 63.3411C85.584 63.5087 86.2508 63.3783 86.7638 62.9894C87.2769 62.6005 87.5783 61.9967 87.5783 61.3564Z" stroke="white" stroke-miterlimit="10"/>
</svg>
