<svg width="59" height="59" viewBox="0 0 59 59" fill="none" xmlns="http://www.w3.org/2000/svg">
<path d="M29.4921 14.3636C21.1159 14.3636 14.356 21.1237 14.356 29.5C14.356 37.8763 21.1159 44.6364 29.4921 44.6364C37.8682 44.6364 44.6281 37.8763 44.6281 29.5C44.6281 21.1237 37.8682 14.3636 29.4921 14.3636ZM29.4921 39.3375C24.0753 39.3375 19.6547 34.9169 19.6547 29.5C19.6547 24.0831 24.0753 19.6625 29.4921 19.6625C34.9089 19.6625 39.3294 24.0831 39.3294 29.5C39.3294 34.9169 34.9089 39.3375 29.4921 39.3375ZM45.248 10.2161C43.2924 10.2161 41.7131 11.7954 41.7131 13.7511C41.7131 15.7068 43.2924 17.2861 45.248 17.2861C47.2037 17.2861 48.783 15.7142 48.783 13.7511C48.7836 13.2867 48.6925 12.8268 48.5151 12.3976C48.3377 11.9685 48.0773 11.5785 47.7489 11.2502C47.4206 10.9218 47.0306 10.6614 46.6015 10.484C46.1724 10.3066 45.7124 10.2155 45.248 10.2161ZM58.9967 29.5C58.9967 25.4262 59.0336 21.3894 58.8048 17.323C58.5761 12.5998 57.4986 8.408 54.0448 4.95417C50.5837 1.49295 46.3993 0.422854 41.6762 0.194075C37.6025 -0.0347049 33.5657 0.00219513 29.4994 0.00219513C25.4258 0.00219513 21.389 -0.0347049 17.3227 0.194075C12.5996 0.422854 8.40784 1.50033 4.95407 4.95417C1.49292 8.41538 0.422846 12.5998 0.194071 17.323C-0.0347043 21.3968 0.00219509 25.4336 0.00219509 29.5C0.00219509 33.5664 -0.0347043 37.6106 0.194071 41.677C0.422846 46.4002 1.5003 50.592 4.95407 54.0458C8.41522 57.507 12.5996 58.5771 17.3227 58.8059C21.3964 59.0347 25.4332 58.9978 29.4994 58.9978C33.5731 58.9978 37.6099 59.0347 41.6762 58.8059C46.3993 58.5771 50.5911 57.4997 54.0448 54.0458C57.506 50.5846 58.5761 46.4002 58.8048 41.677C59.041 37.6106 58.9967 33.5738 58.9967 29.5ZM52.5024 46.902C51.9637 48.2452 51.3143 49.2488 50.2737 50.282C49.2332 51.3226 48.2369 51.9721 46.8938 52.5108C43.012 54.0532 33.7945 53.7064 29.4921 53.7064C25.1896 53.7064 15.9648 54.0532 12.083 52.5182C10.7399 51.9794 9.73622 51.33 8.70304 50.2894C7.66248 49.2488 7.01305 48.2525 6.47432 46.9094C4.93931 43.0201 5.28617 33.8025 5.28617 29.5C5.28617 25.1975 4.93931 15.9725 6.47432 12.0906C7.01305 10.7475 7.66248 9.74378 8.70304 8.71058C9.7436 7.67738 10.7399 7.02056 12.083 6.48182C15.9648 4.94679 25.1896 5.29365 29.4921 5.29365C33.7945 5.29365 43.0193 4.94679 46.9011 6.48182C48.2443 7.02056 49.2479 7.67 50.2811 8.71058C51.3217 9.75116 51.9711 10.7475 52.5098 12.0906C54.0448 15.9725 53.698 25.1975 53.698 29.5C53.698 33.8025 54.0448 43.0201 52.5024 46.902Z" fill="#FF9503"/>
</svg>
